# xmcd CD database file
#
# Track frame offsets:
#	150
#	17200
#	38333
#	57675
#	76975
#	94453
#	114363
#	130775
#	146000
#	164095
#	181048
#
# Disc length: 2633 seconds
#
# Revision: 0
# Processed by: cddbd v1.5.2PL0 Copyright (c) Steve Scherf et al.
# Submitted via: CDex 1.51
#
DISCID=910a470b
DTITLE=Natuscha and Kondor Band - Natuscha and Kondor Band
DYEAR=1990
DGENRE=Merengue
TTITLE0=El La Engañó
TTITLE1=Sombras
TTITLE2=Sei Sei Sei
TTITLE3=Sin Ti
TTITLE4=Princesa De Sol
TTITLE5=Rumba Lambada
TTITLE6=Gira Gira
TTITLE7=Tengo Ganas De Lloras
TTITLE8=Camino Del Puente Viejo
TTITLE9=Buscando Olvido
TTITLE10=Urubamba, Rio Sagrado
EXTD=YEAR: 1990
EXTT0=
EXTT1=
EXTT2=
EXTT3=
EXTT4=
EXTT5=
EXTT6=
EXTT7=
EXTT8=
EXTT9=
EXTT10=
PLAYORDER=
